<?xml version="1.0" standalone="no"?>
<!DOCTYPE svg PUBLIC "-//W3C//DTD SVG 20010904//EN"
 "http://www.w3.org/TR/2001/REC-SVG-20010904/DTD/svg10.dtd">
<svg version="1.0" xmlns="http://www.w3.org/2000/svg"
 width="1280.000000pt" height="1280.000000pt" viewBox="0 0 1280.000000 1280.000000"
 preserveAspectRatio="xMidYMid meet">
<g transform="translate(0.000000,1280.000000) scale(0.100000,-0.100000)"
fill="#000000" stroke="none">
<path d="M5020 9865 l-1505 -1505 -1532 0 c-1387 0 -1531 -1 -1537 -16 -3 -9
-6 -231 -6 -495 l0 -479 -185 0 -185 0 0 -795 0 -795 188 0 c133 0 192 -4 200
-12 9 -9 12 -149 12 -570 l0 -558 1500 -2 1500 -3 1530 -1530 1530 -1530 0
2106 0 2107 28 18 c48 31 163 147 207 209 117 165 175 355 175 577 0 308 -115
566 -335 748 l-75 61 -2 1985 -3 1984 -1505 -1505z"/>
<path d="M8876 10231 l-280 -280 80 -86 c352 -385 587 -718 804 -1140 377
-734 549 -1539 510 -2388 -6 -128 -15 -259 -20 -292 -5 -33 -16 -112 -25 -175
-9 -63 -20 -135 -26 -160 -119 -548 -207 -814 -404 -1215 -231 -470 -519 -877
-894 -1264 -51 -52 -90 -97 -89 -102 6 -16 540 -559 550 -559 40 0 372 362
581 633 475 616 823 1350 1001 2112 155 665 184 1375 85 2060 -97 668 -311
1300 -642 1895 -224 402 -496 773 -818 1116 -61 65 -117 120 -123 122 -6 1
-137 -123 -290 -277z"/>
<path d="M7908 9271 c-142 -141 -258 -261 -258 -266 0 -6 17 -28 38 -50 169
-181 275 -313 397 -495 132 -198 223 -365 308 -570 197 -476 277 -902 264
-1399 -10 -369 -49 -598 -162 -971 -37 -121 -131 -343 -209 -495 -167 -323
-350 -578 -595 -828 l-115 -117 264 -265 c146 -146 270 -265 276 -265 6 0 58
48 115 108 382 393 667 822 874 1313 53 125 139 366 155 434 4 17 19 73 33
125 50 184 80 354 112 617 23 185 20 691 -4 898 -92 775 -383 1484 -858 2090
-127 162 -341 395 -361 394 -10 0 -133 -116 -274 -258z"/>
<path d="M6936 8302 l-238 -239 84 -92 c207 -223 363 -496 454 -796 41 -132
63 -251 81 -420 37 -367 -34 -747 -209 -1103 -92 -188 -221 -368 -380 -529
l-92 -93 30 -32 c16 -17 123 -126 237 -242 l208 -211 122 125 c389 399 630
873 737 1450 16 85 40 356 40 450 0 96 -24 374 -40 465 -96 540 -341 1027
-716 1423 l-79 83 -239 -239z"/>
</g>
</svg>
